<svg width="26" height="24" viewBox="0 0 26 24" fill="none" xmlns="http://www.w3.org/2000/svg">
<path d="M24.3815 8.05935L17.5546 7.06541L14.5037 0.890505C14.2295 0.338732 13.6945 0.0598145 13.1595 0.0598145C12.6278 0.0598145 12.0965 0.335001 11.8213 0.890505L8.76957 7.06494L1.94215 8.05795C0.717799 8.23519 0.227127 9.74125 1.11472 10.6041L6.05362 15.4082L4.88478 22.1937C4.71873 23.1629 5.49252 23.9404 6.35912 23.9404C6.58907 23.9404 6.82554 23.8858 7.05269 23.7655L13.1604 20.5621L19.2677 23.7664C19.4944 23.8854 19.7304 23.9395 19.9594 23.9395C20.8269 23.9395 21.6021 23.1648 21.4361 22.1951L20.2686 15.4092L25.2085 10.606C26.0965 9.74312 25.6059 8.23659 24.3815 8.05935ZM18.7033 13.8056L17.8582 14.6274L18.0578 15.7879L18.9683 21.0794L14.2047 18.5799L13.1609 18.0323L13.1623 3.23799L15.5424 8.05562L16.0639 9.11112L17.2304 9.2809L22.5583 10.0565L18.7033 13.8056Z" fill="#FBB224"/>
</svg>
